# xmcd
#
# Track frame offsets:
#	150
#	13320
#	26350
#	42225
#	60020
#	69937
#	82382
#	90801
#	110955
#	122868
#	136220
#	147104
#	158900
#	171894
#
# Disc length: 2424 seconds
#
# Revision: 1
# Processed by: cddbd v1.5.2PL0 Copyright (c) Steve Scherf et al.
# Submitted via: audiograbber 1.83.01
#
DISCID=b609760e
DTITLE=Trucker and Country für unterwegs - CD 3
DYEAR=1900
DGENRE=Country
TTITLE0=Kenny Rogers - Ruby Don't Take Your Love To Town
TTITLE1=Hank Williams - Jambalaya
TTITLE2=Connie Francis - It Doesn't Matter Anymore
TTITLE3=Bobby Goldsboro - Honey
TTITLE4=Willie Nelson - Healing Hands Of Time
TTITLE5=Frankie Laine - Moonlight Gambler
TTITLE6=Lorne Greene - Bonanza
TTITLE7=Emmylou Harris - Love Hurts
TTITLE8=Johnny Cash and June Carter - Jackson (Live)
TTITLE9=Jimmy Dean - Big Bad John
TTITLE10=Patsy Cline - I Don't Wanna
TTITLE11="Tennessee" Ernie Ford - Sixteen Tons
TTITLE12=Crystal Gayle - Talkin' In Your Sleep
TTITLE13=Conway Twitty - It's Only Make Believe
EXTD=
EXTT0=
EXTT1=
EXTT2=
EXTT3=
EXTT4=
EXTT5=
EXTT6=
EXTT7=
EXTT8=
EXTT9=
EXTT10=
EXTT11=
EXTT12=
EXTT13=
PLAYORDER=
